<?xml version="1.0" encoding="utf-8"?>
<!-- Generator: Adobe Illustrator 25.4.1, SVG Export Plug-In . SVG Version: 6.00 Build 0)  -->
<svg version="1.1" id="Layer_1" xmlns="http://www.w3.org/2000/svg" xmlns:xlink="http://www.w3.org/1999/xlink" x="0px" y="0px"
	 viewBox="0 0 800 800" style="enable-background:new 0 0 800 800;" xml:space="preserve">
<style type="text/css">
	.st0{fill:#FFFFFF;}
</style>
<g>
	<g>
		<path class="st0" d="M400,0C179.4,0,0,179.4,0,400s179.4,400,400,400s400-179.4,400-400S620.6,0,400,0z M400,730.4
			C217.8,730.4,69.6,582.2,69.6,400S217.8,69.6,400,69.6S730.4,217.8,730.4,400S582.2,730.4,400,730.4z"/>
	</g>
</g>
<g>
	<g>
		<path class="st0" d="M400,113c-158.2,0-287,128.7-287,287s128.7,287,287,287s287-128.7,287-287S558.2,113,400,113z M400,165.2
			c14.4,0,26.1,11.7,26.1,26.1c0,14.4-11.7,26.1-26.1,26.1c-14.4,0-26.1-11.7-26.1-26.1C373.9,176.9,385.6,165.2,400,165.2z
			 M191.3,426.1c-14.4,0-26.1-11.7-26.1-26.1c0-14.4,11.7-26.1,26.1-26.1c14.4,0,26.1,11.7,26.1,26.1
			C217.4,414.4,205.7,426.1,191.3,426.1z M400,634.8c-14.4,0-26.1-11.7-26.1-26.1c0-14.4,11.7-26.1,26.1-26.1
			c14.4,0,26.1,11.7,26.1,26.1C426.1,623.1,414.4,634.8,400,634.8z M529.3,308.6L418.9,419c-5.1,5.1-11.8,7.6-18.4,7.6
			s-13.4-2.5-18.4-7.6l-74.1-74.1c-10.2-10.2-10.2-26.7,0-36.9c10.2-10.2,26.7-10.2,36.9,0l55.7,55.7l91.9-91.9
			c10.2-10.2,26.7-10.2,36.9,0C539.5,281.9,539.5,298.5,529.3,308.6z M608.7,426.1c-14.4,0-26.1-11.7-26.1-26.1
			c0-14.4,11.7-26.1,26.1-26.1c14.4,0,26.1,11.7,26.1,26.1C634.8,414.4,623.1,426.1,608.7,426.1z"/>
	</g>
</g>
</svg>
