<?xml version="1.0" encoding="utf-8"?>
<!-- Generator: Adobe Illustrator 25.4.1, SVG Export Plug-In . SVG Version: 6.00 Build 0)  -->
<svg version="1.1" id="Layer_1" xmlns="http://www.w3.org/2000/svg" xmlns:xlink="http://www.w3.org/1999/xlink" x="0px" y="0px"
	 viewBox="0 0 800 800" style="enable-background:new 0 0 800 800;" xml:space="preserve">
<style type="text/css">
	.st0{fill-rule:evenodd;clip-rule:evenodd;fill:#45AAB8;}
	.st1{fill-rule:evenodd;clip-rule:evenodd;fill:#394240;}
	.st2{fill:#B2E0F9;stroke:#1D1D1B;stroke-width:3.4016;stroke-miterlimit:10;}
</style>
<g>
	<path class="st0" d="M600,675H150c-69,0-125-56-125-125s56-125,125-125c6.9,0,12.5-5.6,12.5-12.5c0-6.9-5.6-12.4-12.4-12.5h0.2
		c-0.1,0-0.2,0-0.2,0c-9.6,0-19,1-28.1,2.7C108.4,389.2,100,370.6,100,350c0-41.4,33.6-75,75-75c20.7,0,39.5,8.4,53,22
		c0,0,12.6,12.4,22,3c9.4-9.4-4.3-20.7-4.3-20.7c-7.8-7.8-17-14.3-27-19.1c0,0,0.1,0,0.1,0C253.4,180.6,332.7,125,425,125
		c109,0,199.8,77.5,220.5,180.4c0,0,0.1,0,0.1,0C631,302,615.8,300,600,300c-6.9,0-12.5,5.6-12.5,12.5S593.1,325,600,325
		c96.6,0,175,78.4,175,175C775,596.6,696.6,675,600,675z"/>
	<g>
		<path class="st1" d="M672.1,313.6C654.4,192.8,550.7,100,425,100c-103.3,0-191.9,62.6-230,152c-6.5-1.3-13.1-2-20-2
			c-55.2,0-100,44.8-100,100c0,22.7,7.7,43.6,20.5,60.4C39.6,432.2,0,486.4,0,550c0,82.8,67.2,150,150,150h450
			c110.5,0,200-89.5,200-200C800,415,746.9,342.5,672.1,313.6z M600,675H150c-69,0-125-56-125-125s56-125,125-125
			c6.9,0,12.5-5.6,12.5-12.5c0-6.9-5.6-12.4-12.4-12.5h0.2c-0.1,0-0.2,0-0.2,0c-9.6,0-19,1-28.1,2.7C108.4,389.2,100,370.6,100,350
			c0-41.4,33.6-75,75-75c20.7,0,39.5,8.4,53,22c0,0,12.6,12.4,22,3c9.4-9.4-4.3-20.7-4.3-20.7c-7.8-7.8-17-14.3-27-19.1
			c0,0,0.1,0,0.1,0C253.4,180.6,332.7,125,425,125c109,0,199.8,77.5,220.5,180.4c0,0,0.1,0,0.1,0C631,302,615.8,300,600,300
			c-6.9,0-12.5,5.6-12.5,12.5S593.1,325,600,325c96.6,0,175,78.4,175,175C775,596.6,696.6,675,600,675z"/>
		<path class="st1" d="M600,375c-6.9,0-12.5,5.6-12.5,12.5S593.1,400,600,400c55.2,0,100,44.8,100,100c0,6.9,5.6,12.5,12.5,12.5
			S725,506.9,725,500C725,431,669,375,600,375z"/>
		<path class="st1" d="M235.3,441c-9.4,9.2,3,20.6,3,20.6C261,484.2,275,515.5,275,550c0,6.9,5.6,12.5,12.5,12.5S300,556.9,300,550
			c0-41.4-16.8-78.9-43.9-106.1C256.1,443.9,244.7,431.8,235.3,441z"/>
	</g>
</g>
<path class="st2" d="M759.7,600.2c-1.6-1.6-3.7-2.7-5.8-2.4c-2.1,0.3-4.2,1.6-5.3,3.5l-2.1,3.5l-11.9-6.9l18-11.4
	c3.2-2.1,4.2-6.4,2.1-9.6s-6.4-4.2-9.6-2.1l-23.4,14.9l-17.3-23.6l17.5-23.9l22.8,15.7c1.3,0.8,2.7,1.3,4,1.3c2.1,0,4.5-1.1,5.8-2.9
	c2.1-3.2,1.3-7.4-1.9-9.6l-18.3-12.5l12.2-7.2l2.4,4c1.1,1.9,3.2,3.2,5.3,3.5c0.3,0,0.5,0,0.8,0c2.1,0,4-0.8,5.3-2.4l23.4-26.8
	c1.9-2.1,2.4-5.6,0.8-8.2c-1.6-2.7-4.5-4-7.4-3.2l-34.8,7.2c-2.1,0.5-4,1.9-5,4c-0.8,2.1-0.8,4.5,0.3,6.4l2.1,3.5l-11.9,6.9
	l-1.1-21.5c-0.3-3.7-3.5-6.9-7.2-6.6s-6.9,3.5-6.6,7.2l1.3,27.3l-29.7,3.2l-11.7-26.5l24.4-12.7c3.5-1.9,4.8-6.1,2.9-9.3
	c-1.9-3.5-6.1-4.8-9.6-2.9l-19.4,9.8V476h4.5l0,0c3.7,0,6.9-3.2,6.9-6.9c0-1.1-0.3-1.9-0.5-2.7l-10.9-33.2c-1.1-2.9-3.7-4.8-6.6-4.8
	l0,0c-2.9,0-5.6,1.9-6.6,4.5l-11.4,33.4c-0.8,2.1-0.3,4.5,1.1,6.4s3.5,2.9,5.6,2.9h4v13.8l-19.9-9.6c-3.5-1.6-7.4-0.3-9.3,3.2
	c-1.6,3.5-0.3,7.7,3.5,9.3l24.4,11.7L644,530.9l-28.4-3.2l1.3-27.3c0.3-3.7-2.9-7.2-6.6-7.2c-3.7-0.3-7.2,2.9-7.2,6.6l-1.1,21.5
	l-11.7-6.6l2.1-3.5c1.1-1.9,1.3-4.2,0.3-6.4c-0.8-2.1-2.7-3.5-5-4l-34.8-7.2c-2.9-0.5-5.8,0.8-7.4,3.2c-1.6,2.7-1.1,5.8,0.8,8.2
	l23.4,26.8c1.3,1.6,3.2,2.4,5.3,2.4c0.3,0,0.5,0,0.8,0c2.1-0.3,4.2-1.6,5.3-3.5l2.4-4l11.9,6.9l-18.3,12.5c-3.2,2.1-4,6.6-1.9,9.6
	c1.3,1.9,3.5,2.9,5.8,2.9c1.3,0,2.7-0.3,4-1.3l22-15.1l17,23.4l-16.7,23.1l-22.6-14.3c-3.2-2.1-7.4-1.1-9.6,2.1s-1.1,7.4,2.1,9.6
	l18,11.4l-11.7,6.6l-2.1-3.5c-1.1-1.9-3.2-3.2-5.3-3.5c-2.1-0.3-4.5,0.5-5.8,2.4l-23.6,26.5c-2.1,2.1-2.4,5.6-0.8,8.2
	c1.3,2.1,3.5,3.5,6.1,3.5c0.5,0,0.8,0,1.3-0.3l34.8-6.9c2.1-0.5,4-1.9,5-4c0.8-2.1,0.8-4.5-0.3-6.4l-2.4-4l11.9-6.9l1.6,22.3
	c0.3,3.7,3.5,6.4,6.9,6.4c0.3,0,0.3,0,0.5,0c3.7-0.3,6.6-3.7,6.4-7.4l-2.1-27.1l28.1-3.2l11.7,26.5l-24.2,11.7
	c-3.5,1.6-5,5.8-3.2,9.3c1.6,3.5,5.6,5,9,3.2l19.9-9.6v14.1h-4c-2.1,0-4.2,1.1-5.6,2.9s-1.6,4.2-1.1,6.4l11.4,33.7
	c1.1,2.9,3.7,4.5,6.6,4.5l0,0c2.9,0,5.6-1.9,6.6-4.8l11.1-33.4c0.8-2.1,0.3-4.5-1.1-6.4s-3.5-2.9-5.6-2.9h-4.5v-13.8l19.4,9.8
	c1.1,0.5,2.1,0.8,3.5,0.8c2.4,0,5-1.3,6.4-3.7c1.9-3.5,0.5-7.7-2.9-9.3l-24.4-12.7l11.7-26.3l29.5,3.2l-2.1,27.1
	c-0.3,3.7,2.7,7.2,6.4,7.4c0.3,0,0.3,0,0.5,0c3.7,0,6.6-2.7,6.9-6.4l1.6-22.3l12.2,7.2l-2.4,4c-1.1,1.9-1.3,4.2-0.3,6.4
	c0.8,2.1,2.7,3.5,5,4l34.8,6.9c0.5,0,0.8,0.3,1.3,0.3c2.4,0,4.8-1.3,6.1-3.5c1.6-2.7,1.1-5.8-0.8-8.2L759.7,600.2z"/>
</svg>
