<?xml version="1.0" encoding="utf-8"?>
<!-- Generator: Adobe Illustrator 25.4.1, SVG Export Plug-In . SVG Version: 6.00 Build 0)  -->
<svg version="1.1" id="Слой_1" xmlns="http://www.w3.org/2000/svg" xmlns:xlink="http://www.w3.org/1999/xlink" x="0px" y="0px"
	 viewBox="0 0 800 399.5" style="enable-background:new 0 0 800 399.5;" xml:space="preserve">
<style type="text/css">
	.st0{display:none;}
	.st1{display:inline;fill:#46A9B7;stroke:#394240;stroke-width:2.8346;stroke-miterlimit:10;}
	.st2{fill:#46A9B7;}
</style>
<g id="Layer_1" class="st0">
	<path class="st1" d="M440.8,92.9h-5.3c-1.8,0-3.3-1.5-3.3-3.3V28.8c0-1.8,1.5-3.3,3.3-3.3h5.3c1.8,0,3.3,1.5,3.3,3.3v60.7
		C444.2,91.4,442.7,92.9,440.8,92.9z"/>
	<path class="st1" d="M220.6,129.6h-5.3c-1.8,0-3.3-1.5-3.3-3.3V65.5c0-1.8,1.5-3.3,3.3-3.3h5.3c1.8,0,3.3,1.5,3.3,3.3v60.7
		C223.9,128.1,222.4,129.6,220.6,129.6z"/>
	<path class="st1" d="M302,212h-5.3c-1.8,0-3.3-1.5-3.3-3.3V148c0-1.8,1.5-3.3,3.3-3.3h5.3c1.8,0,3.3,1.5,3.3,3.3v60.7
		C305.4,210.5,303.9,212,302,212z"/>
	<path class="st1" d="M639.9,279.4h-5.3c-1.8,0-3.3-1.5-3.3-3.3v-60.7c0-1.8,1.5-3.3,3.3-3.3h5.3c1.8,0,3.3,1.5,3.3,3.3V276
		C643.2,277.9,641.7,279.4,639.9,279.4z"/>
	<path class="st1" d="M669.5,105.7h-5.3c-1.8,0-3.3-1.5-3.3-3.3V41.7c0-1.8,1.5-3.3,3.3-3.3h5.3c1.8,0,3.3,1.5,3.3,3.3v60.7
		C672.9,104.2,671.4,105.7,669.5,105.7z"/>
	<path class="st1" d="M415.2,229h-5.3c-1.8,0-3.3-1.5-3.3-3.3V165c0-1.8,1.5-3.3,3.3-3.3h5.3c1.8,0,3.3,1.5,3.3,3.3v60.7
		C418.5,227.5,417,229,415.2,229z"/>
	<path class="st1" d="M577.8,129.6h-5.3c-1.8,0-3.3-1.5-3.3-3.3V65.5c0-1.8,1.5-3.3,3.3-3.3h5.3c1.8,0,3.3,1.5,3.3,3.3v60.7
		C581.1,128.1,579.6,129.6,577.8,129.6z"/>
	<path class="st1" d="M244.8,359.4h-5.3c-1.8,0-3.3-1.5-3.3-3.3v-60.7c0-1.8,1.5-3.3,3.3-3.3h5.3c1.8,0,3.3,1.5,3.3,3.3V356
		C248.2,357.9,246.7,359.4,244.8,359.4z"/>
	<path class="st1" d="M90,378h-5.3c-1.8,0-3.3-1.5-3.3-3.3V314c0-1.8,1.5-3.3,3.3-3.3H90c1.8,0,3.3,1.5,3.3,3.3v60.7
		C93.3,376.5,91.8,378,90,378z"/>
	<path class="st1" d="M471.4,346.8h-5.3c-1.8,0-3.3-1.5-3.3-3.3v-60.7c0-1.8,1.5-3.3,3.3-3.3h5.3c1.8,0,3.3,1.5,3.3,3.3v60.7
		C474.8,345.3,473.3,346.8,471.4,346.8z"/>
	<path class="st1" d="M708.8,382.2h-5.3c-1.8,0-3.3-1.5-3.3-3.3v-60.7c0-1.8,1.5-3.3,3.3-3.3h5.3c1.8,0,3.3,1.5,3.3,3.3v60.7
		C712.2,380.7,710.7,382.2,708.8,382.2z"/>
	<path class="st1" d="M565.8,382.2h-5.3c-1.8,0-3.3-1.5-3.3-3.3v-60.7c0-1.8,1.5-3.3,3.3-3.3h5.3c1.8,0,3.3,1.5,3.3,3.3v60.7
		C569.1,380.7,567.6,382.2,565.8,382.2z"/>
	<path class="st1" d="M96,126.6h-5.3c-1.8,0-3.3-1.5-3.3-3.3V62.5c0-1.8,1.5-3.3,3.3-3.3H96c1.8,0,3.3,1.5,3.3,3.3v60.7
		C99.3,125.1,97.8,126.6,96,126.6z"/>
	<path class="st1" d="M328.4,359.4h-5.3c-1.8,0-3.3-1.5-3.3-3.3v-60.7c0-1.8,1.5-3.3,3.3-3.3h5.3c1.8,0,3.3,1.5,3.3,3.3V356
		C331.7,357.9,330.2,359.4,328.4,359.4z"/>
</g>
<circle class="st2" cx="94.5" cy="210.9" r="14.7"/>
<circle class="st2" cx="132.1" cy="131.4" r="14.7"/>
<circle class="st2" cx="208.8" cy="106.4" r="14.7"/>
<circle class="st2" cx="79.8" cy="41.6" r="14.7"/>
<circle class="st2" cx="315.4" cy="66.4" r="14.7"/>
<circle class="st2" cx="191.4" cy="257" r="14.7"/>
<circle class="st2" cx="348.1" cy="259.4" r="14.7"/>
<circle class="st2" cx="607.9" cy="123.8" r="14.7"/>
<circle class="st2" cx="743.4" cy="46.2" r="14.7"/>
<circle class="st2" cx="273.3" cy="244.7" r="14.7"/>
<circle class="st2" cx="413.1" cy="175.5" r="14.7"/>
<circle class="st2" cx="408.4" cy="56.3" r="14.7"/>
<circle class="st2" cx="388.8" cy="324.6" r="14.7"/>
<circle class="st2" cx="488" cy="345.9" r="14.7"/>
<circle class="st2" cx="218" cy="347.6" r="14.7"/>
<circle class="st2" cx="483.3" cy="225.6" r="14.7"/>
<circle class="st2" cx="593.2" cy="217.1" r="14.7"/>
<circle class="st2" cx="710.8" cy="312.2" r="14.7"/>
<circle class="st2" cx="689.9" cy="181.5" r="14.7"/>
<circle class="st2" cx="554.4" cy="286.4" r="14.7"/>
<circle class="st2" cx="648.9" cy="354" r="14.7"/>
<circle class="st2" cx="94.5" cy="330.9" r="14.7"/>
<circle class="st2" cx="214.9" cy="26.9" r="14.7"/>
<circle class="st2" cx="286" cy="146.1" r="14.7"/>
<circle class="st2" cx="490.7" cy="116.7" r="14.7"/>
<circle class="st2" cx="558.5" cy="37" r="14.7"/>
<circle class="st2" cx="191.4" cy="185" r="14.7"/>
</svg>
