<?xml version="1.0" encoding="utf-8"?>
<!-- Generator: Adobe Illustrator 25.4.1, SVG Export Plug-In . SVG Version: 6.00 Build 0)  -->
<svg version="1.1" id="Слой_1" xmlns="http://www.w3.org/2000/svg" xmlns:xlink="http://www.w3.org/1999/xlink" x="0px" y="0px"
	 viewBox="0 0 115.3 113" style="enable-background:new 0 0 115.3 113;" xml:space="preserve">
<style type="text/css">
	.st0{display:none;}
	.st1{display:inline;fill:#46A9B7;stroke:#394240;stroke-width:2.8346;stroke-miterlimit:10;}
	.st2{fill:#B2E0F9;stroke:#1D1D1B;stroke-width:2.2677;stroke-miterlimit:10;}
</style>
<g id="Layer_1" class="st0">
	<path class="st1" d="M98.4-50.4h-5.3c-1.8,0-3.3-1.5-3.3-3.3v-60.8c0-1.8,1.5-3.3,3.3-3.3h5.3c1.8,0,3.3,1.5,3.3,3.3v60.7
		C101.8-51.9,100.3-50.4,98.4-50.4z"/>
	<path class="st1" d="M-121.8-13.7h-5.3c-1.8,0-3.3-1.5-3.3-3.3v-60.8c0-1.8,1.5-3.3,3.3-3.3h5.3c1.8,0,3.3,1.5,3.3,3.3v60.7
		C-118.5-15.2-120-13.7-121.8-13.7z"/>
	<path class="st1" d="M-40.4,68.7h-5.3c-1.8,0-3.3-1.5-3.3-3.3V4.7c0-1.8,1.5-3.3,3.3-3.3h5.3c1.8,0,3.3,1.5,3.3,3.3v60.7
		C-37,67.2-38.5,68.7-40.4,68.7z"/>
	<path class="st1" d="M297.5,136.1h-5.3c-1.8,0-3.3-1.5-3.3-3.3V72.1c0-1.8,1.5-3.3,3.3-3.3h5.3c1.8,0,3.3,1.5,3.3,3.3v60.6
		C300.8,134.6,299.3,136.1,297.5,136.1z"/>
	<path class="st1" d="M327.1-37.6h-5.3c-1.8,0-3.3-1.5-3.3-3.3v-60.7c0-1.8,1.5-3.3,3.3-3.3h5.3c1.8,0,3.3,1.5,3.3,3.3v60.7
		C330.5-39.1,329-37.6,327.1-37.6z"/>
	<path class="st1" d="M72.8,85.7h-5.3c-1.8,0-3.3-1.5-3.3-3.3V21.7c0-1.8,1.5-3.3,3.3-3.3h5.3c1.8,0,3.3,1.5,3.3,3.3v60.7
		C76.1,84.2,74.6,85.7,72.8,85.7z"/>
	<path class="st1" d="M235.4-13.7h-5.3c-1.8,0-3.3-1.5-3.3-3.3v-60.8c0-1.8,1.5-3.3,3.3-3.3h5.3c1.8,0,3.3,1.5,3.3,3.3v60.7
		C238.7-15.2,237.2-13.7,235.4-13.7z"/>
	<path class="st1" d="M-97.6,216.1h-5.3c-1.8,0-3.3-1.5-3.3-3.3v-60.7c0-1.8,1.5-3.3,3.3-3.3h5.3c1.8,0,3.3,1.5,3.3,3.3v60.6
		C-94.2,214.6-95.7,216.1-97.6,216.1z"/>
	<path class="st1" d="M-252.4,234.7h-5.3c-1.8,0-3.3-1.5-3.3-3.3v-60.7c0-1.8,1.5-3.3,3.3-3.3h5.3c1.8,0,3.3,1.5,3.3,3.3v60.7
		C-249.1,233.2-250.6,234.7-252.4,234.7z"/>
	<path class="st1" d="M129,203.5h-5.3c-1.8,0-3.3-1.5-3.3-3.3v-60.7c0-1.8,1.5-3.3,3.3-3.3h5.3c1.8,0,3.3,1.5,3.3,3.3v60.7
		C132.4,202,130.9,203.5,129,203.5z"/>
	<path class="st1" d="M366.4,238.9h-5.3c-1.8,0-3.3-1.5-3.3-3.3v-60.7c0-1.8,1.5-3.3,3.3-3.3h5.3c1.8,0,3.3,1.5,3.3,3.3v60.7
		C369.8,237.4,368.3,238.9,366.4,238.9z"/>
	<path class="st1" d="M223.4,238.9h-5.3c-1.8,0-3.3-1.5-3.3-3.3v-60.7c0-1.8,1.5-3.3,3.3-3.3h5.3c1.8,0,3.3,1.5,3.3,3.3v60.7
		C226.7,237.4,225.2,238.9,223.4,238.9z"/>
	<path class="st1" d="M-246.4-16.7h-5.3c-1.8,0-3.3-1.5-3.3-3.3v-60.8c0-1.8,1.5-3.3,3.3-3.3h5.3c1.8,0,3.3,1.5,3.3,3.3v60.7
		C-243.1-18.2-244.6-16.7-246.4-16.7z"/>
	<path class="st1" d="M-14,216.1h-5.3c-1.8,0-3.3-1.5-3.3-3.3v-60.7c0-1.8,1.5-3.3,3.3-3.3h5.3c1.8,0,3.3,1.5,3.3,3.3v60.6
		C-10.7,214.6-12.2,216.1-14,216.1z"/>
</g>
<path class="st2" d="M93.3,69.4c-0.6-0.6-1.4-1-2.2-0.9c-0.8,0.1-1.6,0.6-2,1.3l-0.8,1.3l-4.5-2.6l6.8-4.3c1.2-0.8,1.6-2.4,0.8-3.6
	c-0.8-1.2-2.4-1.6-3.6-0.8L79,65.4l-6.5-8.9l6.6-9l8.6,5.9c0.5,0.3,1,0.5,1.5,0.5c0.8,0,1.7-0.4,2.2-1.1c0.8-1.2,0.5-2.8-0.7-3.6
	l-6.9-4.7l4.6-2.7l0.9,1.5c0.4,0.7,1.2,1.2,2,1.3c0.1,0,0.2,0,0.3,0c0.8,0,1.5-0.3,2-0.9l8.8-10.1c0.7-0.8,0.9-2.1,0.3-3.1
	s-1.7-1.5-2.8-1.2L86.8,32c-0.8,0.2-1.5,0.7-1.9,1.5c-0.3,0.8-0.3,1.7,0.1,2.4l0.8,1.3l-4.5,2.6l-0.4-8.1c-0.1-1.4-1.3-2.6-2.7-2.5
	c-1.4,0.1-2.6,1.3-2.5,2.7l0.5,10.3L65,43.4l-4.4-10l9.2-4.8c1.3-0.7,1.8-2.3,1.1-3.5c-0.7-1.3-2.3-1.8-3.6-1.1L60,27.7v-5.1h1.7
	l0,0c1.4,0,2.6-1.2,2.6-2.6c0-0.4-0.1-0.7-0.2-1L60,6.5c-0.4-1.1-1.4-1.8-2.5-1.8l0,0c-1.1,0-2.1,0.7-2.5,1.7L50.7,19
	c-0.3,0.8-0.1,1.7,0.4,2.4s1.3,1.1,2.1,1.1h1.5v5.2l-7.5-3.6c-1.3-0.6-2.8-0.1-3.5,1.2c-0.6,1.3-0.1,2.9,1.3,3.5l9.2,4.4l-4.5,10.1
	L39,42.1l0.5-10.3c0.1-1.4-1.1-2.7-2.5-2.7c-1.4-0.1-2.7,1.1-2.7,2.5l-0.4,8.1l-4.4-2.5l0.8-1.3c0.4-0.7,0.5-1.6,0.1-2.4
	c-0.3-0.8-1-1.3-1.9-1.5l-13.1-2.7c-1.1-0.2-2.2,0.3-2.8,1.2c-0.6,1-0.4,2.2,0.3,3.1l8.8,10.1c0.5,0.6,1.2,0.9,2,0.9
	c0.1,0,0.2,0,0.3,0c0.8-0.1,1.6-0.6,2-1.3l0.9-1.5l4.5,2.6l-6.9,4.7c-1.2,0.8-1.5,2.5-0.7,3.6c0.5,0.7,1.3,1.1,2.2,1.1
	c0.5,0,1-0.1,1.5-0.5l8.3-5.7l6.4,8.8l-6.3,8.7l-8.5-5.4c-1.2-0.8-2.8-0.4-3.6,0.8c-0.8,1.2-0.4,2.8,0.8,3.6l6.8,4.3L27,70.9
	l-0.8-1.3c-0.4-0.7-1.2-1.2-2-1.3s-1.7,0.2-2.2,0.9l-8.9,10c-0.8,0.8-0.9,2.1-0.3,3.1c0.5,0.8,1.3,1.3,2.3,1.3c0.2,0,0.3,0,0.5-0.1
	l13.1-2.6c0.8-0.2,1.5-0.7,1.9-1.5c0.3-0.8,0.3-1.7-0.1-2.4l-0.9-1.5l4.5-2.6l0.6,8.4c0.1,1.4,1.3,2.4,2.6,2.4c0.1,0,0.1,0,0.2,0
	c1.4-0.1,2.5-1.4,2.4-2.8l-0.8-10.2l10.6-1.2l4.4,10L45,83.9c-1.3,0.6-1.9,2.2-1.2,3.5c0.6,1.3,2.1,1.9,3.4,1.2l7.5-3.6v5.3h-1.5
	c-0.8,0-1.6,0.4-2.1,1.1c-0.5,0.7-0.6,1.6-0.4,2.4l4.3,12.7c0.4,1.1,1.4,1.7,2.5,1.7l0,0c1.1,0,2.1-0.7,2.5-1.8l4.2-12.6
	c0.3-0.8,0.1-1.7-0.4-2.4c-0.5-0.7-1.3-1.1-2.1-1.1H60v-5.2l7.3,3.7c0.4,0.2,0.8,0.3,1.3,0.3c0.9,0,1.9-0.5,2.4-1.4
	c0.7-1.3,0.2-2.9-1.1-3.5l-9.2-4.8l4.4-9.9l11.1,1.2l-0.8,10.2c-0.1,1.4,1,2.7,2.4,2.8c0.1,0,0.1,0,0.2,0c1.4,0,2.5-1,2.6-2.4
	l0.6-8.4l4.6,2.7l-0.9,1.5c-0.4,0.7-0.5,1.6-0.1,2.4c0.3,0.8,1,1.3,1.9,1.5l13.1,2.6c0.2,0,0.3,0.1,0.5,0.1c0.9,0,1.8-0.5,2.3-1.3
	c0.6-1,0.4-2.2-0.3-3.1L93.3,69.4z"/>
</svg>
