<?xml version="1.0" encoding="utf-8"?>
<!-- Generator: Adobe Illustrator 25.4.1, SVG Export Plug-In . SVG Version: 6.00 Build 0)  -->
<svg version="1.1" id="Слой_1" xmlns="http://www.w3.org/2000/svg" xmlns:xlink="http://www.w3.org/1999/xlink" x="0px" y="0px"
	 viewBox="0 0 800 399.5" style="enable-background:new 0 0 800 399.5;" xml:space="preserve">
<style type="text/css">
	.st0{display:none;}
	.st1{display:inline;fill:#46A9B7;stroke:#394240;stroke-width:2.8346;stroke-miterlimit:10;}
	.st2{fill:#46A9B7;}
	.st3{fill:#46A9B7;stroke:#394240;stroke-width:2.8346;stroke-miterlimit:10;}
</style>
<g id="Layer_1" class="st0">
	<path class="st1" d="M440.8,92.9h-5.3c-1.8,0-3.3-1.5-3.3-3.3V28.8c0-1.8,1.5-3.3,3.3-3.3h5.3c1.8,0,3.3,1.5,3.3,3.3v60.7
		C444.2,91.4,442.7,92.9,440.8,92.9z"/>
	<path class="st1" d="M220.6,129.6h-5.3c-1.8,0-3.3-1.5-3.3-3.3V65.5c0-1.8,1.5-3.3,3.3-3.3h5.3c1.8,0,3.3,1.5,3.3,3.3v60.7
		C223.9,128.1,222.4,129.6,220.6,129.6z"/>
	<path class="st1" d="M302,212h-5.3c-1.8,0-3.3-1.5-3.3-3.3V148c0-1.8,1.5-3.3,3.3-3.3h5.3c1.8,0,3.3,1.5,3.3,3.3v60.7
		C305.4,210.5,303.9,212,302,212z"/>
	<path class="st1" d="M639.9,279.4h-5.3c-1.8,0-3.3-1.5-3.3-3.3v-60.7c0-1.8,1.5-3.3,3.3-3.3h5.3c1.8,0,3.3,1.5,3.3,3.3V276
		C643.2,277.9,641.7,279.4,639.9,279.4z"/>
	<path class="st1" d="M669.5,105.7h-5.3c-1.8,0-3.3-1.5-3.3-3.3V41.7c0-1.8,1.5-3.3,3.3-3.3h5.3c1.8,0,3.3,1.5,3.3,3.3v60.7
		C672.9,104.2,671.4,105.7,669.5,105.7z"/>
	<path class="st1" d="M415.2,229h-5.3c-1.8,0-3.3-1.5-3.3-3.3V165c0-1.8,1.5-3.3,3.3-3.3h5.3c1.8,0,3.3,1.5,3.3,3.3v60.7
		C418.5,227.5,417,229,415.2,229z"/>
	<path class="st1" d="M577.8,129.6h-5.3c-1.8,0-3.3-1.5-3.3-3.3V65.5c0-1.8,1.5-3.3,3.3-3.3h5.3c1.8,0,3.3,1.5,3.3,3.3v60.7
		C581.1,128.1,579.6,129.6,577.8,129.6z"/>
	<path class="st1" d="M244.8,359.4h-5.3c-1.8,0-3.3-1.5-3.3-3.3v-60.7c0-1.8,1.5-3.3,3.3-3.3h5.3c1.8,0,3.3,1.5,3.3,3.3V356
		C248.2,357.9,246.7,359.4,244.8,359.4z"/>
	<path class="st1" d="M90,378h-5.3c-1.8,0-3.3-1.5-3.3-3.3V314c0-1.8,1.5-3.3,3.3-3.3H90c1.8,0,3.3,1.5,3.3,3.3v60.7
		C93.3,376.5,91.8,378,90,378z"/>
	<path class="st1" d="M471.4,346.8h-5.3c-1.8,0-3.3-1.5-3.3-3.3v-60.7c0-1.8,1.5-3.3,3.3-3.3h5.3c1.8,0,3.3,1.5,3.3,3.3v60.7
		C474.8,345.3,473.3,346.8,471.4,346.8z"/>
	<path class="st1" d="M708.8,382.2h-5.3c-1.8,0-3.3-1.5-3.3-3.3v-60.7c0-1.8,1.5-3.3,3.3-3.3h5.3c1.8,0,3.3,1.5,3.3,3.3v60.7
		C712.2,380.7,710.7,382.2,708.8,382.2z"/>
	<path class="st1" d="M565.8,382.2h-5.3c-1.8,0-3.3-1.5-3.3-3.3v-60.7c0-1.8,1.5-3.3,3.3-3.3h5.3c1.8,0,3.3,1.5,3.3,3.3v60.7
		C569.1,380.7,567.6,382.2,565.8,382.2z"/>
	<path class="st1" d="M96,126.6h-5.3c-1.8,0-3.3-1.5-3.3-3.3V62.5c0-1.8,1.5-3.3,3.3-3.3H96c1.8,0,3.3,1.5,3.3,3.3v60.7
		C99.3,125.1,97.8,126.6,96,126.6z"/>
	<path class="st1" d="M328.4,359.4h-5.3c-1.8,0-3.3-1.5-3.3-3.3v-60.7c0-1.8,1.5-3.3,3.3-3.3h5.3c1.8,0,3.3,1.5,3.3,3.3V356
		C331.7,357.9,330.2,359.4,328.4,359.4z"/>
</g>
<g>
	<path class="st2" d="M136.5,88.3c-0.4-1.6-1.5-2.9-2.9-3.7c-0.9-0.5-2-0.8-3-0.8c-2,0-3.8,1-5,2.6l-3.5-2l3.3-1.9
		c0.6-0.3,0.8-1.1,0.4-1.6c-0.3-0.6-1-0.8-1.6-0.4l-4.5,2.6l-4.2-2.4l9.1-5.2c0.6-0.3,0.8-1.1,0.4-1.6c-0.3-0.6-1-0.8-1.6-0.4
		l-10.2,5.9l-5.5-3.2l10.3-4.5L107.8,67l5.5-3.2l10.3,5.9c0.2,0.1,0.4,0.2,0.6,0.2c0.4,0,0.8-0.2,1-0.6c0.3-0.6,0.1-1.3-0.4-1.6
		l-9.1-5.2l4.2-2.4l4.5,2.6c0.2,0.1,0.4,0.2,0.6,0.2c0.4,0,0.8-0.2,1-0.6c0.3-0.6,0.1-1.3-0.4-1.6l-3.3-1.9l3.5-2
		c1.1,1.6,3,2.6,5,2.6c1,0,2.1-0.3,3-0.8c3-1.7,4-5.4,2.4-8.4c-1.6-2.9-5.5-4-8.4-2.4c-2.5,1.4-3.6,4.2-3,6.8l-3.6,2.1v-3.9
		c0-0.7-0.5-1.2-1.2-1.2s-1.2,0.5-1.2,1.2V58l-4.2,2.4V49.9c0-0.7-0.5-1.2-1.2-1.2s-1.2,0.5-1.2,1.2v11.8l-5.5,3.2l1.2-11.2
		l-9.1,6.7V54l10.2-5.9c0.6-0.3,0.8-1,0.4-1.6c-0.3-0.6-1.1-0.8-1.6-0.4l-9.1,5.2v-4.8l4.5-2.6c0.6-0.3,0.8-1.1,0.4-1.6
		c-0.3-0.6-1.1-0.8-1.6-0.4l-3.3,1.9v-4c2.8-0.6,5-3,5-6c0-3.4-2.8-6.2-6.2-6.2c-3.4,0-6.2,2.8-6.2,6.2c0,3,2.1,5.5,5,6v4l-3.3-2
		c-0.6-0.3-1.3-0.1-1.6,0.4c-0.3,0.6-0.1,1.3,0.4,1.6l4.5,2.6v4.8L87.2,46c-0.6-0.3-1.3-0.1-1.6,0.4C85.3,47,85.5,47.7,86,48l10.3,6
		v6.3l-9.1-6.7l1.2,11.2l-5.4-3V50c0-0.7-0.5-1.2-1.2-1.2s-1.2,0.5-1.2,1.2v10.5L76.4,58v-5.2c0-0.7-0.5-1.2-1.2-1.2
		S74,52.1,74,52.8v3.9l-3.6-2.1c0.6-2.6-0.5-5.4-3-6.8c-2.9-1.6-6.8-0.5-8.4,2.4c-1.7,3-0.6,6.7,2.4,8.4c0.9,0.5,1.9,0.8,3,0.8
		c2,0,3.8-1,5-2.6l3.5,2l-3.3,1.9c-0.6,0.3-0.8,1-0.4,1.6c0.2,0.4,0.6,0.6,1,0.6c0.2,0,0.4-0.1,0.6-0.2l4.5-2.6l4.2,2.4l-9.1,5.2
		c-0.6,0.3-0.8,1.1-0.4,1.6c0.2,0.4,0.6,0.6,1,0.6c0.2,0,0.4-0.1,0.6-0.2l10.2-5.9l5.5,3.2L77,71.5L87.3,76l-5.5,3.2l-10.2-5.9
		C71,73,70.3,73.2,70,73.7c-0.3,0.6-0.1,1.3,0.4,1.6l9.1,5.2L75.2,83l-4.5-2.6c-0.6-0.3-1.3-0.1-1.6,0.4c-0.3,0.6-0.1,1.3,0.4,1.6
		l3.3,1.9l-3.5,2c-1.1-1.6-3-2.6-5-2.6c-1,0-2.1,0.3-3,0.8c-1.4,0.8-2.5,2.1-2.9,3.7s-0.3,3.2,0.5,4.7c1.1,1.9,3.1,3.2,5.4,3.2l0,0
		c1,0,2.1-0.3,3-0.8c1.4-0.8,2.5-2.1,2.9-3.7c0.3-1,0.3-2.1,0-3.1l3.6-2.1v3.9c0,0.7,0.5,1.2,1.2,1.2s1.2-0.5,1.2-1.2v-5.2l4.2-2.4
		v10.5c0,0.7,0.5,1.2,1.2,1.2s1.2-0.5,1.2-1.2V81.3l5.5-3.2l-1.2,11.2l9.1-6.7V89L86,94.9c-0.6,0.3-0.8,1-0.4,1.6
		c0.3,0.6,1,0.8,1.6,0.4l9.1-5.2v4.8l-4.5,2.6c-0.6,0.3-0.8,1-0.4,1.6c0.3,0.6,1.1,0.8,1.6,0.4l3.3-1.9v4c-2.8,0.6-5,3-5,6
		c0,3.4,2.8,6.2,6.2,6.2c3.4,0,6.2-2.8,6.2-6.2c0-3-2.1-5.5-5-6v-4l3.3,1.9c0.2,0.1,0.4,0.2,0.6,0.2c0.4,0,0.8-0.2,1-0.6
		c0.3-0.6,0.1-1.3-0.4-1.6l-4.5-2.6v-4.8l9.1,5.2c0.2,0.1,0.4,0.2,0.6,0.2c0.4,0,0.8-0.2,1-0.6c0.3-0.6,0.1-1.3-0.4-1.6L98.7,89
		v-6.3l9.1,6.7l-1.2-11.2l5.5,3.2v11.8c0,0.7,0.5,1.2,1.2,1.2s1.2-0.5,1.2-1.2V82.6l4.2,2.4v5.2c0,0.7,0.5,1.2,1.2,1.2
		s1.2-0.5,1.2-1.2v-3.9l3.6,2.1c-0.2,1-0.2,2.1,0,3.1c0.4,1.6,1.5,2.9,2.9,3.7c0.9,0.5,1.9,0.8,3,0.8c2.2,0,4.3-1.2,5.4-3.2
		C136.8,91.5,137,89.8,136.5,88.3z M130.6,49.3c0.7,0,1.4,0.2,2,0.6c0.5,0.3,1,0.8,1.3,1.3c0.1,0.1,0.1,0.3,0.2,0.4
		c0.7,1.7,0,3.8-1.7,4.7c-1.6,0.9-3.6,0.4-4.8-0.9c-0.1-0.2-0.3-0.4-0.4-0.6c-0.3-0.5-0.4-1.1-0.5-1.7c-0.1-1.4,0.6-2.7,1.9-3.5
		C129.3,49.5,129.9,49.3,130.6,49.3z M67.8,54.9c-0.1,0.2-0.2,0.4-0.4,0.6c-1.1,1.3-3.2,1.8-4.8,0.9c-1.7-0.9-2.3-3-1.7-4.7
		c0.1-0.1,0.1-0.3,0.2-0.4c0.3-0.6,0.8-1,1.3-1.3c0.6-0.4,1.3-0.6,2-0.6c0.6,0,1.3,0.2,1.8,0.5c1.3,0.7,2,2.1,1.9,3.5
		C68.2,53.8,68.1,54.4,67.8,54.9z M66.3,93.3c-0.6,0.3-1.2,0.5-1.8,0.5c-0.7,0-1.4-0.2-2-0.6c-0.5-0.3-1-0.8-1.3-1.3
		c-0.1-0.1-0.1-0.3-0.2-0.4c-0.3-0.8-0.4-1.6-0.1-2.4c0.3-1,0.9-1.8,1.8-2.3c0.6-0.3,1.2-0.5,1.8-0.5c1.1,0,2.2,0.5,2.9,1.4
		c0.1,0.2,0.3,0.3,0.4,0.5c0.3,0.5,0.4,1.1,0.5,1.7c0,0.4,0,0.8-0.1,1.2C67.8,92,67.2,92.8,66.3,93.3z M104.9,84.2l-6.2-4.5
		l-1.2-0.9l-1.2,0.9l-6.2,4.5l0.8-7.6l0.2-1.5l-1.3-0.6l-7-3.1l7-3.1l1.3-0.6L91,66.4l-0.8-7.6l6.2,4.5l1.2,0.9l1.2-0.9l6.2-4.5
		l-0.8,7.6l-0.2,1.5l1.3,0.6l7,3.1l-7,3.1l-1.3,0.6l0.2,1.5L104.9,84.2z M96.4,30.1c0.4-0.1,0.7-0.2,1.1-0.2s0.8,0.1,1.1,0.2
		c1.5,0.5,2.7,1.9,2.7,3.6s-1.1,3.1-2.6,3.6c-0.4,0.1-0.8,0.2-1.2,0.2c-0.4,0-0.8-0.1-1.2-0.2c-1.5-0.5-2.6-1.9-2.6-3.6
		C93.7,32,94.9,30.5,96.4,30.1z M98.7,113c-0.4,0.1-0.7,0.2-1.1,0.2s-0.8-0.1-1.1-0.2c-1.5-0.5-2.7-1.9-2.7-3.6s1.1-3.1,2.6-3.6
		c0.4-0.1,0.8-0.2,1.2-0.2c0.4,0,0.8,0.1,1.2,0.2c1.5,0.5,2.6,1.9,2.6,3.6C101.3,111.1,100.2,112.5,98.7,113z M128.7,93.3
		c-0.9-0.5-1.5-1.3-1.8-2.3c-0.1-0.4-0.1-0.8-0.1-1.2c0-0.6,0.2-1.2,0.5-1.7c0.1-0.2,0.3-0.4,0.4-0.5c0.7-0.9,1.8-1.4,2.9-1.4
		c0.6,0,1.3,0.2,1.8,0.5c0.9,0.5,1.5,1.3,1.8,2.3c0.2,0.8,0.2,1.7-0.1,2.4c-0.1,0.2-0.1,0.3-0.2,0.4c-0.3,0.6-0.8,1-1.3,1.3
		C131.4,93.8,129.9,93.9,128.7,93.3z"/>
</g>
<g>
	<path class="st2" d="M345,325.7c-0.4-1.6-1.5-2.9-2.9-3.7c-0.9-0.5-2-0.8-3-0.8c-2,0-3.8,1-5,2.6l-3.5-2l3.3-1.9
		c0.6-0.3,0.8-1.1,0.4-1.6c-0.3-0.6-1-0.8-1.6-0.4l-4.5,2.6l-4.2-2.4l9.1-5.2c0.6-0.3,0.8-1.1,0.4-1.6c-0.3-0.6-1-0.8-1.6-0.4
		l-10.2,5.9l-5.5-3.2l10.3-4.5l-10.3-4.5l5.5-3.2l10.3,5.9c0.2,0.1,0.4,0.2,0.6,0.2c0.4,0,0.8-0.2,1-0.6c0.3-0.6,0.1-1.3-0.4-1.6
		l-9.1-5.2l4.2-2.4l4.5,2.6c0.2,0.1,0.4,0.2,0.6,0.2c0.4,0,0.8-0.2,1-0.6c0.3-0.6,0.1-1.3-0.4-1.6l-3.3-1.9l3.5-2
		c1.1,1.6,3,2.6,5,2.6c1,0,2.1-0.3,3-0.8c3-1.7,4-5.4,2.4-8.4c-1.6-2.9-5.5-4-8.4-2.4c-2.5,1.4-3.6,4.2-3,6.8l-3.6,2.1v-3.9
		c0-0.7-0.5-1.2-1.2-1.2s-1.2,0.5-1.2,1.2v5.2L323,298v-10.5c0-0.7-0.5-1.2-1.2-1.2s-1.2,0.5-1.2,1.2v11.8l-5.5,3.2l1.2-11.2
		l-9.1,6.5v-6.3l10.2-5.9c0.6-0.3,0.8-1,0.4-1.6c-0.3-0.6-1.1-0.8-1.6-0.4l-9.1,5.2V284l4.5-2.6c0.6-0.3,0.8-1.1,0.4-1.6
		c-0.3-0.6-1.1-0.8-1.6-0.4l-3.3,1.9v-4c2.8-0.6,5-3,5-6c0-3.4-2.8-6.2-6.2-6.2c-3.4,0-6.2,2.8-6.2,6.2c0,3,2.1,5.5,5,6v4l-3.3-1.9
		c-0.6-0.3-1.3-0.1-1.6,0.4c-0.3,0.6-0.1,1.3,0.4,1.6l4.5,2.6v4.8l-9.1-5.2c-0.6-0.3-1.3-0.1-1.6,0.4c-0.3,0.6-0.1,1.3,0.4,1.6
		l10.2,5.9v6.3l-9.1-6.7l1.2,11.2l-5.5-3.2v-11.8c0-0.7-0.5-1.2-1.2-1.2s-1.2,0.5-1.2,1.2v10.5l-4.2-2.4v-5.2c0-0.7-0.5-1.2-1.2-1.2
		s-1.2,0.5-1.2,1.2v3.9l-3.6-2.1c0.6-2.6-0.5-5.4-3-6.8c-2.9-1.6-6.8-0.5-8.4,2.4c-1.7,3-0.6,6.7,2.4,8.4c0.9,0.5,1.9,0.8,3,0.8
		c2,0,3.8-1,5-2.6l3.5,2l-3.3,1.9c-0.6,0.3-0.8,1-0.4,1.6c0.2,0.4,0.6,0.6,1,0.6c0.2,0,0.4-0.1,0.6-0.2l4.5-2.6l4.2,2.4l-9.1,5.2
		c-0.6,0.3-0.8,1.1-0.4,1.6c0.2,0.4,0.6,0.6,1,0.6c0.2,0,0.4-0.1,0.6-0.2l10.2-5.9l5.5,3.2l-10.3,4.5l10.3,4.5l-5.5,3.2l-10.2-5.9
		c-0.6-0.3-1.3-0.1-1.6,0.4c-0.3,0.6-0.1,1.3,0.4,1.6l9.1,5.2l-4.2,2.4l-4.3-2.5c-0.6-0.3-1.3-0.1-1.6,0.4c-0.3,0.6-0.1,1.3,0.4,1.6
		l3.3,1.9l-3.5,2c-1.1-1.6-3-2.6-5-2.6c-1,0-2.1,0.3-3,0.8c-1.4,0.8-2.5,2.1-2.9,3.7s-0.3,3.2,0.5,4.7c1.1,1.9,3.1,3.2,5.4,3.2l0,0
		c1,0,2.1-0.3,3-0.8c1.4-0.8,2.5-2.1,2.9-3.7c0.3-1,0.3-2.1,0-3.1l3.6-2.1v3.9c0,0.7,0.5,1.2,1.2,1.2s1.2-0.5,1.2-1.2v-5.2l4.2-2.4
		v10.5c0,0.7,0.5,1.2,1.2,1.2s1.2-0.5,1.2-1.2v-11.8l5.5-3.2l-1.2,11.2l9.1-6.7v6.3l-10.2,5.9c-0.6,0.3-0.8,1-0.4,1.6
		c0.3,0.6,1,0.8,1.6,0.4l9.1-5.2v4.8l-4.5,2.6c-0.6,0.3-0.8,1-0.4,1.6c0.3,0.6,1.1,0.8,1.6,0.4l3.3-1.9v4c-2.8,0.6-5,3-5,6
		c0,3.4,2.8,6.2,6.2,6.2c3.4,0,6.2-2.8,6.2-6.2c0-3-2.1-5.5-5-6v-4l3.3,1.9c0.2,0.1,0.4,0.2,0.6,0.2c0.4,0,0.8-0.2,1-0.6
		c0.3-0.6,0.1-1.3-0.4-1.6l-4.5-2.6v-4.8l9.1,5.2c0.2,0.1,0.4,0.2,0.6,0.2c0.4,0,0.8-0.2,1-0.6c0.3-0.6,0.1-1.3-0.4-1.6l-10.2-5.9
		v-6.3l9.1,6.7l-1.2-11.2l5.5,3.2v11.8c0,0.7,0.5,1.2,1.2,1.2s1.2-0.5,1.2-1.2v-10.5l4.2,2.4v5.2c0,0.7,0.5,1.2,1.2,1.2
		s1.2-0.5,1.2-1.2v-3.9l3.6,2.1c-0.2,1-0.2,2.1,0,3.1c0.4,1.6,1.5,2.9,2.9,3.7c0.9,0.5,1.9,0.8,3,0.8c2.2,0,4.3-1.2,5.4-3.2
		C345.3,328.9,345.5,327.2,345,325.7z M339.1,286.7c0.7,0,1.4,0.2,2,0.6c0.5,0.3,1,0.8,1.3,1.3c0.1,0.1,0.1,0.3,0.2,0.4
		c0.7,1.7,0,3.8-1.7,4.7c-1.6,0.9-3.6,0.4-4.8-0.9c-0.1-0.2-0.3-0.4-0.4-0.6c-0.3-0.5-0.4-1.1-0.5-1.7c-0.1-1.4,0.6-2.7,1.9-3.5
		C337.8,286.8,338.4,286.7,339.1,286.7z M276.3,292.3c-0.1,0.2-0.2,0.4-0.4,0.6c-1.1,1.3-3.2,1.8-4.8,0.9c-1.7-0.9-2.3-3-1.7-4.7
		c0.1-0.1,0.1-0.3,0.2-0.4c0.3-0.6,0.8-1,1.3-1.3c0.6-0.4,1.3-0.6,2-0.6c0.6,0,1.3,0.2,1.8,0.5c1.3,0.7,2,2.1,1.9,3.5
		C276.7,291.2,276.6,291.8,276.3,292.3z M274.8,330.6c-0.6,0.3-1.2,0.5-1.8,0.5c-0.7,0-1.4-0.2-2-0.6c-0.5-0.3-1-0.8-1.3-1.3
		c-0.1-0.1-0.1-0.3-0.2-0.4c-0.3-0.8-0.4-1.6-0.1-2.4c0.3-1,0.9-1.8,1.8-2.3c0.6-0.3,1.2-0.5,1.8-0.5c1.1,0,2.2,0.5,2.9,1.4
		c0.1,0.2,0.3,0.3,0.4,0.5c0.3,0.5,0.4,1.1,0.5,1.7c0,0.4,0,0.8-0.1,1.2C276.3,329.3,275.7,330.2,274.8,330.6z M313.4,321.6
		l-6.2-4.5l-1.2-0.9l-1.2,0.9l-6.2,4.5l0.8-7.6l0.2-1.5l-1.3-0.6l-7-3.1l7-3.1l1.3-0.6l-0.2-1.5l-0.8-7.6l6.2,4.5l1.2,0.9l1.2-0.9
		l6.2-4.5l-0.8,7.6l-0.2,1.5l1.3,0.6l7,3.1l-7,3.1l-1.3,0.6l0.2,1.5L313.4,321.6z M304.9,267.4c0.4-0.1,0.7-0.2,1.1-0.2
		s0.8,0.1,1.1,0.2c1.5,0.5,2.7,1.9,2.7,3.6c0,1.7-1.1,3.1-2.6,3.6c-0.4,0.1-0.8,0.2-1.2,0.2c-0.4,0-0.8-0.1-1.2-0.2
		c-1.5-0.5-2.6-1.9-2.6-3.6S303.4,267.9,304.9,267.4z M307.2,350.4c-0.4,0.1-0.7,0.2-1.1,0.2s-0.8-0.1-1.1-0.2
		c-1.5-0.5-2.7-1.9-2.7-3.6s1.1-3.1,2.6-3.6c0.4-0.1,0.8-0.2,1.2-0.2c0.4,0,0.8,0.1,1.2,0.2c1.5,0.5,2.6,1.9,2.6,3.6
		C309.8,348.4,308.7,349.9,307.2,350.4z M337.2,330.6c-0.9-0.5-1.5-1.3-1.8-2.3c-0.1-0.4-0.1-0.8-0.1-1.2c0-0.6,0.2-1.2,0.5-1.7
		c0.1-0.2,0.3-0.4,0.4-0.5c0.7-0.9,1.8-1.4,2.9-1.4c0.6,0,1.3,0.2,1.8,0.5c0.9,0.5,1.5,1.3,1.8,2.3c0.2,0.8,0.2,1.7-0.1,2.4
		c-0.1,0.2-0.1,0.3-0.2,0.4c-0.3,0.6-0.8,1-1.3,1.3C339.9,331.2,338.4,331.3,337.2,330.6z"/>
</g>
<g>
	<g>
		<path class="st2" d="M638.3,195.6h-3l2.8-7.8l-4.6,0.6l-2.6,7.2h-2.8l2.5-6.8l-4.6,0.6l-2.3,6.3h-2.8l2.2-5.9l-4.6,0.6l-2,5.4
			h-4.7l3.4-5.9l10.6-6.1l4.3,0.9l2.3-8.5l-8.5-2.2l-1.4,4.3l-10.5,6.1h-6.9l2.3-4l5.6,1l2.8-3.7l-6.2-1.1l1.4-2.4l6.6,1.2l2.8-3.7
			l-7.2-1.3l1.4-2.4l7.5,1.3l2.8-3.7l-8.1-1.4l1.5-2.6l-6.7-3.9l-1.5,2.6l-5.3-6.3l-1.8,4.3l4.9,5.9l-1.4,2.4l-4.7-5.6l-1.8,4.3
			l4.3,5.1l-1.4,2.4l-4.1-4.8l-1.8,4.3l3.7,4.4l-2.3,4l-3.4-5.9v-12.3l2.9-3.3l-6.2-6.3l-6.2,6.3l3,3.3v12.1l-3.4,6l-2.3-4l3.7-4.4
			l-1.8-4.3l-4.1,4.8l-1.4-2.4l4.3-5.1l-1.8-4.3l-4.7,5.6l-1.4-2.4l4.9-5.9l-1.8-4.3l-5.3,6.3l-1.5-2.6l-6.8,3.4l1.5,2.6l-8.1,1.4
			l2.8,3.7l7.5-1.3l1.4,2.4l-7.2,1.3l2.8,3.7l6.6-1.2l1.4,2.4l-6.2,1.1l2.8,3.7l5.6-1l2.3,4h-6.8l-10.6-6.2l-1.4-4.2l-8.4,2.6
			l2.3,8.5l4.4-0.9l10.5,6.1l3.4,6h-4.6l-2-5.4l-4.6-0.6l2.2,5.9h-2.8l-2.3-6.3l-4.6-0.6l2.5,6.8h-2.8l-2.6-7.2l-4.6-0.6l2.8,7.8h-3
			v7.7h3l-2.8,7.8l4.6-0.6l2.6-7.2h2.8L553,210l4.6-0.6l2.3-6.3h2.8l-2.2,5.9l4.6-0.6l2-5.4h4.7l-3.4,5.9l-10.6,6.1l-4.3-0.9
			l-2.3,8.5l8.5,2.2l1.4-4.3l10.5-6.1h6.9l-2.3,4l-5.6-1l-2.8,3.7l6.2,1.1l-1.4,2.4l-6.6-1.2l-2.8,3.7l7.2,1.3l-1.4,2.4l-7.5-1.3
			l-2.8,3.7l8.1,1.4l-1.5,2.6l6.7,3.9l1.5-2.6l5.3,6.3l1.8-4.3l-4.9-5.9l1.4-2.4l4.7,5.6l1.8-4.3l-4.5-4.5l1.4-2.4l4.1,4.8l1.8-4.3
			l-3.7-4.4l2.3-4l3.4,5.9v12.3l-2.9,3.3l6.2,6.3l6.2-6.3l-3-3.3v-12.1l3.4-6l2.3,4l-3.7,4.4l1.8,4.3l4.1-4.8l1.4,2.4l-4.3,5.1
			l1.8,4.3l4.7-5.6l1.4,2.4l-4.9,5.9l1.8,4.3l5.3-6.3l1.5,2.6l6.7-3.9l-1.5-2.6l8.1-1.4l-2.8-3.7l-7.5,1.3l-1.4-2.4l7.2-1.3
			l-2.8-3.7l-6.6,1.2l-1.4-2.4l6.2-1.1l-2.8-3.7l-5.6,1l-2.3-4h6.8l10.6,6.2l1.4,4.2l8.5-2.2l-2.3-8.5l-4.4,0.9l-10.5-6.1l-3.4-6
			h4.6l2,5.4l4.6,0.6l-2.2-5.9h2.8l2.3,6.3l4.6,0.6l-2.5-6.8h2.8l2.6,7.2l4.6,0.6l-2.8-7.8h3L638.3,195.6L638.3,195.6L638.3,195.6z
			 M602.7,210.7l-3.7-6.5l-6.7,3.9l3.7,6.5l-4.2,7.3l-4.2-7.3l3.7-6.5l-6.7-3.9l-3.7,6.5h-8.5l4.2-7.4h7.5v-7.7h-7.5l-4.2-7.3h8.5
			l3.7,6.5l6.7-3.9l-3.7-6.5l4.2-7.3l4.2,7.4l-3.7,6.5l6.7,3.9l3.7-6.5h8.5l-4.2,7.4h-7.5v7.7h7.5l4.2,7.3L602.7,210.7L602.7,210.7
			L602.7,210.7z"/>
	</g>
</g>
<g>
	<g>
		<path class="st2" d="M500.7,75.2h-3l2.8-7.8l-4.6,0.6l-2.6,7.2h-2.8l2.5-6.8l-4.6,0.6l-2.3,6.3h-2.8l2.2-5.9l-4.6,0.6l-2,5.4h-4.7
			l3.4-5.9l10.6-6.1l4.3,0.9l2.3-8.5l-8.5-2.2l-1.4,4.3L474.4,64h-6.9l2.3-4l5.6,1l2.8-3.7l-6.2-1.1l1.4-2.4L480,55l2.8-3.7
			l-7.2-1.3l1.4-2.4l7.5,1.3l2.8-3.7l-8.1-1.4l1.5-2.6l-6.7-3.9l-1.5,2.6l-5.3-6.3l-1.8,4.3l4.9,5.9l-1.4,2.4l-4.7-5.6l-1.8,4.3
			l4.3,5.1l-1.4,2.4l-4.1-4.8l-1.8,4.3l3.7,4.4l-2.3,4l-3.4-5.9V42.1l2.9-3.3l-6.2-6.3l-6.2,6.3l3,3.3v12.1l-3.4,6l-2.3-4l3.7-4.4
			l-1.8-4.3l-4.1,4.8l-1.4-2.4l4.3-5.1l-1.8-4.3l-4.7,5.6l-1.4-2.4l4.9-5.9l-1.8-4.3l-5.3,6.3l-1.5-2.6l-6.7,3.9l1.5,2.6l-8.1,1.4
			l2.8,3.7l7.5-1.3l1.4,2.4l-7.2,1.3l2.8,3.7l6.6-1.2l1.4,2.4l-6.2,1.1l2.8,3.7l5.6-1l2.3,4H434l-10.6-6.2l-1.4-4.2l-8.5,2.2
			l2.3,8.5l4.4-0.9l10.5,6.1l3.4,6h-4.6l-2-5.4l-4.6-0.6l2.2,5.9h-2.8L420,69l-4.6-0.6l2.5,6.8h-2.8l-2.6-7.2l-4.6-0.6l2.8,7.8h-3
			v7.7h3l-2.8,7.8l4.6-0.6l2.6-7.2h2.8l-2.5,6.8l4.6-0.6l2.3-6.3h2.8l-2.2,5.9l4.6-0.6l2-5.4h4.7l-3.4,5.9L420,94.9l-4.3-0.9
			l-2.3,8.5l8.5,2.2l1.4-4.3l10.5-6.1h6.9l-2.3,4l-5.6-1L430,101l6.2,1.1l-1.4,2.4l-6.6-1.2l-2.8,3.7l7.2,1.3l-1.4,2.4l-7.5-1.3
			l-2.8,3.7l8.1,1.4l-1.5,2.6l6.7,3.9l1.5-2.6l5.3,6.3l1.8-4.3l-4.9-5.9l1.4-2.4l4.7,5.6l1.8-4.3l-4.3-5.1l1.4-2.4l4.1,4.8l1.8-4.3
			l-3.7-4.4l2.3-4l3.4,5.9v12.3l-2.9,3.3l6.2,6.3l6.2-6.3l-3-3.3v-12.1l3.4-6l2.3,4l-3.7,4.4l1.8,4.3l4.1-4.8l1.4,2.4l-4.3,5.1
			l1.8,4.3l4.7-5.6l1.4,2.4l-4.9,5.9l1.8,4.3l5.3-6.3l1.5,2.6l6.7-3.9l-1.5-2.6l8.1-1.4l-2.8-3.7L477,111l-1.4-2.4l7.2-1.3l-2.8-3.7
			l-6.6,1.2l-1.4-2.4l6.2-1.1l-2.8-3.7l-5.6,1l-2.3-4h6.8l10.6,6.2l1.4,4.2l8.5-2.2l-2.3-8.5L488,95l-10.5-6.1l-3.4-6h4.6l2,5.4
			l4.6,0.6l-2.2-5.9h2.8l2.3,6.3l4.6,0.6l-2.5-6.8h2.8l2.6,7.2l4.6,0.6l-2.8-7.8h3L500.7,75.2L500.7,75.2L500.7,75.2z M465,90.3
			l-3.7-6.5l-6.7,3.9l3.7,6.5l-4.2,7.3l-4.2-7.3l3.7-6.5l-6.7-3.9l-3.7,6.5h-8.5l4.2-7.4h7.5v-7.7h-7.5l-4.2-7.3h8.5l3.7,6.5
			l6.7-3.9l-3.7-6.5l4.2-7.3l4.2,7.4l-3.7,6.5l6.7,3.9L465,68h8.5l-4.2,7.4h-7.5v7.7h7.5l4.2,7.3L465,90.3L465,90.3L465,90.3z"/>
	</g>
</g>
<path class="st2" d="M178.5,259.5c-0.6-0.6-1.4-1-2.2-0.9s-1.6,0.6-2,1.3l-0.8,1.3l-4.5-2.6l6.8-4.3c1.2-0.8,1.6-2.4,0.8-3.6
	s-2.4-1.6-3.6-0.8l-8.8,5.6l-6.5-8.9l6.6-9l8.6,5.9c0.5,0.3,1,0.5,1.5,0.5c0.8,0,1.7-0.4,2.2-1.1c0.8-1.2,0.5-2.8-0.7-3.6l-6.9-4.7
	l4.6-2.7l0.9,1.5c0.4,0.7,1.2,1.2,2,1.3c0.1,0,0.2,0,0.3,0c0.8,0,1.5-0.3,2-0.9l8.8-10.1c0.7-0.8,0.9-2.1,0.3-3.1
	c-0.6-1-1.7-1.5-2.8-1.2l-13.1,2.7c-0.8,0.2-1.5,0.7-1.9,1.5c-0.3,0.8-0.3,1.7,0.1,2.4l0.8,1.3l-4.5,2.6l-0.4-8.1
	c-0.1-1.4-1.3-2.6-2.7-2.5s-2.6,1.3-2.5,2.7l0.5,10.3l-11.2,1.2l-4.4-10l9.2-4.8c1.3-0.7,1.8-2.3,1.1-3.5c-0.7-1.3-2.3-1.8-3.6-1.1
	l-7.3,3.7v-5.1h1.7l0,0c1.4,0,2.6-1.2,2.6-2.6c0-0.4-0.1-0.7-0.2-1l-4.1-12.5c-0.4-1.1-1.4-1.8-2.5-1.8l0,0c-1.1,0-2.1,0.7-2.5,1.7
	l-4.3,12.6c-0.3,0.8-0.1,1.7,0.4,2.4c0.5,0.7,1.3,1.1,2.1,1.1h1.5v5.2l-7.5-3.6c-1.3-0.6-2.8-0.1-3.5,1.2c-0.6,1.3-0.1,2.9,1.3,3.5
	l9.2,4.4l-4.5,10.1l-10.6-1l0.5-10.3c0.1-1.4-1.1-2.7-2.5-2.7c-1.4-0.1-2.7,1.1-2.7,2.5l-0.4,8.1l-4.4-2.5l0.8-1.3
	c0.4-0.7,0.5-1.6,0.1-2.4c-0.3-0.8-1-1.3-1.9-1.5l-13.1-2.9c-1.1-0.2-2.2,0.3-2.8,1.2c-0.6,1-0.4,2.2,0.3,3.1l8.8,10.1
	c0.5,0.6,1.2,0.9,2,0.9c0.1,0,0.2,0,0.3,0c0.8-0.1,1.6-0.6,2-1.3l0.9-1.5l4.5,2.6l-6.9,4.7c-1.2,0.8-1.5,2.5-0.7,3.6
	c0.5,0.7,1.3,1.1,2.2,1.1c0.5,0,1-0.1,1.5-0.5l8.3-5.7l6.4,8.8l-6.3,8.7l-8.5-5.4c-1.2-0.8-2.8-0.4-3.6,0.8
	c-0.8,1.2-0.4,2.8,0.8,3.6l6.8,4.3l-4.4,2.5l-0.8-1.3c-0.4-0.7-1.2-1.2-2-1.3s-1.7,0.2-2.2,0.9l-8.9,10c-0.8,0.8-0.9,2.1-0.3,3.1
	c0.5,0.8,1.3,1.3,2.3,1.3c0.2,0,0.3,0,0.5-0.1L114,271c0.8-0.2,1.5-0.7,1.9-1.5c0.3-0.8,0.3-1.7-0.1-2.4l-0.9-1.5l4.5-2.6l0.6,8.4
	c0.1,1.4,1.3,2.4,2.6,2.4c0.1,0,0.1,0,0.2,0c1.4-0.1,2.5-1.4,2.4-2.8l-0.8-10.2l10.6-1.2l4.4,10l-9.1,4.4c-1.3,0.6-1.9,2.2-1.2,3.5
	c0.6,1.3,2.1,1.9,3.4,1.2l7.5-3.6v5.3h-1.5c-0.8,0-1.6,0.4-2.1,1.1s-0.6,1.6-0.4,2.4l4.3,12.7c0.4,1.1,1.4,1.7,2.5,1.7l0,0
	c1.1,0,2.1-0.7,2.5-1.8l4.2-12.6c0.3-0.8,0.1-1.7-0.4-2.4c-0.5-0.7-1.3-1.1-2.1-1.1h-1.7v-5l7.3,3.7c0.4,0.2,0.8,0.3,1.3,0.3
	c0.9,0,1.9-0.5,2.4-1.4c0.7-1.3,0.2-2.9-1.1-3.5l-9.2-4.8l4.4-9.9l11.1,1.2l-0.8,10.2c-0.1,1.4,1,2.7,2.4,2.8c0.1,0,0.1,0,0.2,0
	c1.4,0,2.5-1,2.6-2.4l0.6-8.4l4.6,2.7l-0.9,1.5c-0.4,0.7-0.5,1.6-0.1,2.4c0.3,0.8,1,1.3,1.9,1.5l13.1,2.6c0.2,0,0.3,0.1,0.5,0.1
	c0.9,0,1.8-0.5,2.3-1.3c0.6-1,0.4-2.2-0.3-3.1L178.5,259.5z"/>
<path class="st2" d="M368.5,167.5c-0.6-0.6-1.4-1-2.2-0.9c-0.8,0.1-1.6,0.6-2,1.3l-0.8,1.3l-4.5-2.6l6.8-4.3
	c1.2-0.8,1.6-2.4,0.8-3.6c-0.8-1.2-2.4-1.6-3.6-0.8l-8.8,5.6l-6.5-8.9l6.6-9l8.6,5.9c0.5,0.3,1,0.5,1.5,0.5c0.8,0,1.7-0.4,2.2-1.1
	c0.8-1.2,0.5-2.8-0.7-3.6l-6.9-4.7l4.6-2.7l0.9,1.5c0.4,0.7,1.2,1.2,2,1.3c0.1,0,0.2,0,0.3,0c0.8,0,1.5-0.3,2-0.9l8.8-10.1
	c0.7-0.8,0.9-2.1,0.3-3.1s-1.7-1.5-2.8-1.2l-13.1,2.7c-0.8,0.2-1.5,0.7-1.9,1.5c-0.3,0.8-0.3,1.7,0.1,2.4l0.8,1.3l-4.5,2.6l-0.4-8.1
	c-0.1-1.4-1.3-2.6-2.7-2.5c-1.4,0.1-2.6,1.3-2.5,2.7l0.5,10.3l-11.2,1.2l-4.4-10l9.2-4.8c1.3-0.7,1.8-2.3,1.1-3.5
	c-0.7-1.3-2.3-1.8-3.6-1.1l-7.3,3.7v-5.1h1.7l0,0c1.4,0,2.6-1.2,2.6-2.6c0-0.4-0.1-0.7-0.2-1l-4.1-12.5c-0.4-1.1-1.4-1.8-2.5-1.8
	l0,0c-1.1,0-2.1,0.7-2.5,1.7l-4.3,12.6c-0.3,0.8-0.1,1.7,0.4,2.4s1.3,1.1,2.1,1.1h1.5v5.2l-7.5-3.6c-1.3-0.6-2.8-0.1-3.5,1.2
	c-0.6,1.3-0.1,2.9,1.3,3.5l9.2,4.4l-4.5,10.1l-10.7-1.2l0.5-10.3c0.1-1.4-1.1-2.7-2.5-2.7c-1.4-0.1-2.7,1.1-2.7,2.5l-0.4,8.1
	l-4.4-2.5l0.8-1.3c0.4-0.7,0.5-1.6,0.1-2.4c-0.3-0.8-1-1.3-1.9-1.5l-13.1-2.7c-1.1-0.2-2.2,0.3-2.8,1.2c-0.6,1-0.4,2.2,0.3,3.1
	l8.8,10.1c0.5,0.6,1.2,0.9,2,0.9c0.1,0,0.2,0,0.3,0c0.8-0.1,1.6-0.6,2-1.3l0.9-1.5l4.5,2.6l-6.9,4.7c-1.2,0.8-1.5,2.5-0.7,3.6
	c0.5,0.7,1.3,1.1,2.2,1.1c0.5,0,1-0.1,1.5-0.5l8.3-5.7l6.4,8.8l-6.3,8.7l-8.5-5.4c-1.2-0.8-2.8-0.4-3.6,0.8
	c-0.8,1.2-0.4,2.8,0.8,3.6l6.8,4.3l-4.4,2.5l-0.8-1.3c-0.4-0.7-1.2-1.2-2-1.3s-1.7,0.2-2.2,0.9l-8.9,10c-0.8,0.8-0.9,2.1-0.3,3.1
	c0.5,0.8,1.3,1.3,2.3,1.3c0.2,0,0.3,0,0.5-0.1l13.1-2.6c0.8-0.2,1.5-0.7,1.9-1.5c0.3-0.8,0.3-1.7-0.1-2.4l-0.9-1.5l4.5-2.6l0.6,8.4
	c0.1,1.4,1.3,2.4,2.6,2.4c0.1,0,0.1,0,0.2,0c1.4-0.1,2.5-1.4,2.4-2.8l-0.8-10.2l10.6-1.2l4.4,10l-9.1,4.4c-1.3,0.6-1.9,2.2-1.2,3.5
	c0.6,1.3,2.1,1.9,3.4,1.2l7.5-3.6v5.3h-1.5c-0.8,0-1.6,0.4-2.1,1.1c-0.5,0.7-0.6,1.6-0.4,2.4l4.3,12.7c0.4,1.1,1.4,1.7,2.5,1.7l0,0
	c1.1,0,2.1-0.7,2.5-1.8l4.2-12.6c0.3-0.8,0.1-1.7-0.4-2.4s-1.3-1.1-2.1-1.1h-1.7v-5.2l7.3,3.7c0.4,0.2,0.8,0.3,1.3,0.3
	c0.9,0,1.9-0.5,2.4-1.4c0.7-1.3,0.2-2.9-1.1-3.5l-9.2-4.8l4.4-9.9l11.1,1.2l-0.8,10.2c-0.1,1.4,1,2.7,2.4,2.8c0.1,0,0.1,0,0.2,0
	c1.4,0,2.5-1,2.6-2.4l0.6-8.4l4.6,2.7l-0.9,1.5c-0.4,0.7-0.5,1.6-0.1,2.4c0.3,0.8,1,1.3,1.9,1.5l13.1,2.6c0.2,0,0.3,0.1,0.5,0.1
	c0.9,0,1.8-0.5,2.3-1.3c0.6-1,0.4-2.2-0.3-3.1L368.5,167.5z"/>
<path class="st2" d="M763.3,300.2c-0.6-0.6-1.4-1-2.2-0.9s-1.6,0.6-2,1.3l-0.8,1.3l-4.5-2.6l6.8-4.3c1.2-0.8,1.6-2.4,0.8-3.6
	s-2.4-1.6-3.6-0.8l-8.8,5.6l-6.5-8.9l6.6-9l8.6,5.9c0.5,0.3,1,0.5,1.5,0.5c0.8,0,1.7-0.4,2.2-1.1c0.8-1.2,0.5-2.8-0.7-3.6l-6.9-4.7
	l4.6-2.7l0.9,1.5c0.4,0.7,1.2,1.2,2,1.3c0.1,0,0.2,0,0.3,0c0.8,0,1.5-0.3,2-0.9l8.8-10.1c0.7-0.8,0.9-2.1,0.3-3.1
	c-0.6-1-1.7-1.5-2.8-1.2l-13.1,2.7c-0.8,0.2-1.5,0.7-1.9,1.5c-0.3,0.8-0.3,1.7,0.1,2.4l0.8,1.3l-4.5,2.6l-0.4-8.1
	c-0.1-1.4-1.3-2.6-2.7-2.5s-2.6,1.3-2.5,2.7l0.5,10.3l-11.2,1.2l-4.4-10l9.2-4.8c1.3-0.7,1.8-2.3,1.1-3.5c-0.7-1.3-2.3-1.8-3.6-1.1
	l-7.3,3.7v-5.1h1.7l0,0c1.4,0,2.6-1.2,2.6-2.6c0-0.4-0.1-0.7-0.2-1l-4.1-12.5c-0.4-1.1-1.4-1.8-2.5-1.8l0,0c-1.1,0-2.1,0.7-2.5,1.7
	l-4.3,12.6c-0.3,0.8-0.1,1.7,0.4,2.4s1.3,1.1,2.1,1.1h1.5v5.2l-7.5-3.6c-1.3-0.6-2.8-0.1-3.5,1.2c-0.6,1.3-0.1,2.9,1.3,3.5l9.2,4.4
	l-4.5,10.1L709,273l0.5-10.3c0.1-1.4-1.1-2.7-2.5-2.7c-1.4-0.1-2.7,1.1-2.7,2.5l-0.4,8.1l-4.4-2.5l0.8-1.3c0.4-0.7,0.5-1.6,0.1-2.4
	c-0.3-0.8-1-1.3-1.9-1.5l-13.1-2.7c-1.1-0.2-2.2,0.3-2.8,1.2c-0.6,1-0.4,2.2,0.3,3.1l8.8,10.1c0.5,0.6,1.2,0.9,2,0.9
	c0.1,0,0.2,0,0.3,0c0.8-0.1,1.6-0.6,2-1.3l0.9-1.5l4.5,2.6l-6.9,4.7c-1.2,0.8-1.5,2.5-0.7,3.6c0.5,0.7,1.3,1.1,2.2,1.1
	c0.5,0,1-0.1,1.5-0.5l8.3-5.7l6.4,8.8l-6.3,8.7l-8.5-5.4c-1.2-0.8-2.8-0.4-3.6,0.8c-0.8,1.2-0.4,2.8,0.8,3.6l6.8,4.3l-4.4,2.5
	l-0.8-1.3c-0.4-0.7-1.2-1.2-2-1.3c-0.8-0.1-1.7,0.2-2.2,0.9l-8.9,10c-0.8,0.8-0.9,2.1-0.3,3.1c0.5,0.8,1.3,1.3,2.3,1.3
	c0.2,0,0.3,0,0.5-0.1l13.1-2.6c0.8-0.2,1.5-0.7,1.9-1.5c0.3-0.8,0.3-1.7-0.1-2.4l-0.9-1.5l4.5-2.6l0.6,8.4c0.1,1.4,1.3,2.4,2.6,2.4
	c0.1,0,0.1,0,0.2,0c1.4-0.1,2.5-1.4,2.4-2.8l-0.8-10.2l10.6-1.2l4.4,10l-9.1,4.4c-1.3,0.6-1.9,2.2-1.2,3.5c0.6,1.3,2.1,1.9,3.4,1.2
	l7.5-3.6v5.3h-1.5c-0.8,0-1.6,0.4-2.1,1.1s-0.6,1.6-0.4,2.4l4.3,12.7c0.4,1.1,1.4,1.7,2.5,1.7l0,0c1.1,0,2.1-0.7,2.5-1.8l4.2-12.6
	c0.3-0.8,0.1-1.7-0.4-2.4s-1.3-1.1-2.1-1.1H730V316l7.3,3.7c0.4,0.2,0.8,0.3,1.3,0.3c0.9,0,1.9-0.5,2.4-1.4c0.7-1.3,0.2-2.9-1.1-3.5
	l-9.2-4.8l4.4-9.9l11.1,1.2l-0.8,10.2c-0.1,1.4,1,2.7,2.4,2.8c0.1,0,0.1,0,0.2,0c1.4,0,2.5-1,2.6-2.4l0.6-8.4l4.6,2.7l-0.9,1.5
	c-0.4,0.7-0.5,1.6-0.1,2.4c0.3,0.8,1,1.3,1.9,1.5l13.1,2.6c0.2,0,0.3,0.1,0.5,0.1c0.9,0,1.8-0.5,2.3-1.3c0.6-1,0.4-2.2-0.3-3.1
	L763.3,300.2z"/>
<path class="st3" d="M218.7,97.3h-5.3c-1.8,0-3.3-1.5-3.3-3.3V33.2c0-1.8,1.5-3.3,3.3-3.3h5.3c1.8,0,3.3,1.5,3.3,3.3v60.7
	C222,95.8,220.5,97.3,218.7,97.3z"/>
<path class="st3" d="M91.4,372.8h-5.3c-1.8,0-3.3-1.5-3.3-3.3v-60.8c0-1.8,1.5-3.3,3.3-3.3h5.3c1.8,0,3.3,1.5,3.3,3.3v60.7
	C94.7,371.3,93.2,372.8,91.4,372.8z"/>
<path class="st3" d="M218.7,223.1h-5.3c-1.8,0-3.3-1.5-3.3-3.3V159c0-1.8,1.5-3.3,3.3-3.3h5.3c1.8,0,3.3,1.5,3.3,3.3v60.7
	C222,221.6,220.5,223.1,218.7,223.1z"/>
<path class="st3" d="M54.9,207.1h-5.3c-1.8,0-3.3-1.5-3.3-3.3V143c0-1.8,1.5-3.3,3.3-3.3h5.3c1.8,0,3.3,1.5,3.3,3.3v60.7
	C58.2,205.6,56.7,207.1,54.9,207.1z"/>
<path class="st3" d="M399.2,372.8h-5.3c-1.8,0-3.3-1.5-3.3-3.3v-60.8c0-1.8,1.5-3.3,3.3-3.3h5.3c1.8,0,3.3,1.5,3.3,3.3v60.7
	C402.5,371.3,401,372.8,399.2,372.8z"/>
<path class="st3" d="M497.4,324.1h-5.3c-1.8,0-3.3-1.5-3.3-3.3V260c0-1.8,1.5-3.3,3.3-3.3h5.3c1.8,0,3.3,1.5,3.3,3.3v60.7
	C500.7,322.6,499.2,324.1,497.4,324.1z"/>
<path class="st3" d="M425.7,233.4h-5.3c-1.8,0-3.3-1.5-3.3-3.3v-60.8c0-1.8,1.5-3.3,3.3-3.3h5.3c1.8,0,3.3,1.5,3.3,3.3V230
	C429,231.9,427.5,233.4,425.7,233.4z"/>
<path class="st3" d="M565.6,112.8h-5.3c-1.8,0-3.3-1.5-3.3-3.3V48.7c0-1.8,1.5-3.3,3.3-3.3h5.3c1.8,0,3.3,1.5,3.3,3.3v60.7
	C568.9,111.3,567.4,112.8,565.6,112.8z"/>
<path class="st3" d="M613.9,367.5h-5.3c-1.8,0-3.3-1.5-3.3-3.3v-60.8c0-1.8,1.5-3.3,3.3-3.3h5.3c1.8,0,3.3,1.5,3.3,3.3v60.7
	C617.2,366,615.7,367.5,613.9,367.5z"/>
<path class="st3" d="M755.8,104.9h-5.3c-1.8,0-3.3-1.5-3.3-3.3V40.8c0-1.8,1.5-3.3,3.3-3.3h5.3c1.8,0,3.3,1.5,3.3,3.3v60.7
	C759.1,103.4,757.6,104.9,755.8,104.9z"/>
<path class="st3" d="M678.9,207.1h-5.3c-1.8,0-3.3-1.5-3.3-3.3V143c0-1.8,1.5-3.3,3.3-3.3h5.3c1.8,0,3.3,1.5,3.3,3.3v60.7
	C682.2,205.6,680.7,207.1,678.9,207.1z"/>
</svg>
