<?xml version="1.0" encoding="UTF-8"?>
<svg fill="#fff" width="700pt" height="700pt" version="1.1" viewBox="0 0 700 700" xmlns="http://www.w3.org/2000/svg" xmlns:xlink="http://www.w3.org/1999/xlink">

 <g>
  <path d="m616 212.8c0-48.16-39.199-87.359-87.359-87.359s-87.359 39.199-87.359 87.359c0 11.762 9.5195 21.281 21.281 21.281s21.281-9.5195 21.281-21.281c0-24.641 20.16-44.801 44.801-44.801s44.801 20.16 44.801 44.801-20.16 44.801-44.801 44.801h-423.36c-11.762 0-21.281 9.5195-21.281 21.281 0 11.762 9.5195 21.281 21.281 21.281h353.92c24.641 0 44.801 20.16 44.801 44.801s-20.16 44.801-44.801 44.801-44.801-20.16-44.801-44.801c0-11.762-9.5195-21.281-21.281-21.281s-21.281 9.5195-21.281 21.281c0 48.16 39.199 87.359 87.359 87.359s87.359-39.199 87.359-87.359c0-16.801-4.4805-31.922-12.879-45.359 45.918-2.2461 82.316-40.324 82.316-86.805z"/>
  <path d="m270.48 332.64h-165.2c-11.762 0-21.281 9.5195-21.281 21.281s9.5195 21.281 21.281 21.281h165.2c22.398 0 40.32 17.922 40.32 40.32 0 22.398-17.922 40.32-40.32 40.32-22.398 0-40.32-17.922-40.32-40.32 0-11.762-9.5195-21.281-21.281-21.281-11.762 0-21.281 9.5195-21.281 21.281 0 45.359 36.961 82.879 82.879 82.879 45.359 0 82.879-36.961 82.879-82.879 0.003906-45.922-37.516-82.883-82.875-82.883z"/>
  <path d="m105.28 225.68h234.64c45.359 0 81.762-36.961 81.762-81.762 0-45.359-36.961-81.762-81.762-81.762-45.359 0-81.762 36.961-81.762 81.762 0 11.762 9.5195 21.281 21.281 21.281 11.762 0 21.281-9.5195 21.281-21.281 0-21.84 17.922-39.199 39.199-39.199 21.84 0 39.199 17.922 39.199 39.199 0 21.84-17.922 39.199-39.199 39.199h-234.64c-11.762 0-21.281 9.5195-21.281 21.281 0 11.762 9.5195 21.281 21.281 21.281z"/>
  <use x="70" y="644" xlink:href="#h"/>
  <use x="90.546875" y="644" xlink:href="#c"/>
  <use x="104.359375" y="644" xlink:href="#a"/>
  <use x="123.347656" y="644" xlink:href="#l"/>
  <use x="142.242188" y="644" xlink:href="#b"/>
  <use x="155.625" y="644" xlink:href="#a"/>
  <use x="174.617188" y="644" xlink:href="#e"/>
  <use x="204.40625" y="644" xlink:href="#k"/>
  <use x="224.453125" y="644" xlink:href="#j"/>
  <use x="252.453125" y="644" xlink:href="#i"/>
  <use x="274.121094" y="644" xlink:href="#e"/>
  <use x="294.164062" y="644" xlink:href="#c"/>
  <use x="307.972656" y="644" xlink:href="#u"/>
  <use x="317.570312" y="644" xlink:href="#a"/>
  <use x="336.5625" y="644" xlink:href="#g"/>
  <use x="366.242188" y="644" xlink:href="#h"/>
  <use x="386.789062" y="644" xlink:href="#d"/>
  <use x="406.027344" y="644" xlink:href="#t"/>
  <use x="426.070312" y="644" xlink:href="#f"/>
  <use x="446.003906" y="644" xlink:href="#a"/>
  <use x="464.992188" y="644" xlink:href="#b"/>
  <use x="70" y="672" xlink:href="#s"/>
  <use x="82.179688" y="672" xlink:href="#c"/>
  <use x="95.992188" y="672" xlink:href="#d"/>
  <use x="115.226562" y="672" xlink:href="#r"/>
  <use x="154.148438" y="672" xlink:href="#b"/>
  <use x="167.535156" y="672" xlink:href="#q"/>
  <use x="187.46875" y="672" xlink:href="#a"/>
  <use x="216.207031" y="672" xlink:href="#p"/>
  <use x="239.640625" y="672" xlink:href="#d"/>
  <use x="258.875" y="672" xlink:href="#f"/>
  <use x="278.8125" y="672" xlink:href="#g"/>
  <use x="308.492188" y="672" xlink:href="#o"/>
  <use x="329.015625" y="672" xlink:href="#c"/>
  <use x="342.820312" y="672" xlink:href="#d"/>
  <use x="362.058594" y="672" xlink:href="#n"/>
  <use x="371.65625" y="672" xlink:href="#a"/>
  <use x="390.648438" y="672" xlink:href="#m"/>
  <use x="407.242188" y="672" xlink:href="#b"/>
 </g>
</svg>
